<?xml version="1.0" encoding="UTF-8"?>
<svg version="1.1" xmlns="http://www.w3.org/2000/svg" width="1024" height="1024">
<path d="M0 0 C337.92 0 675.84 0 1024 0 C1024 337.92 1024 675.84 1024 1024 C686.08 1024 348.16 1024 0 1024 C0 686.08 0 348.16 0 0 Z " fill="#655BC9" transform="translate(0,0)"/>
<path d="M0 0 C1.14884674 -0.0049649 2.29769348 -0.00992981 3.48135376 -0.01504517 C7.26825567 -0.02960793 11.05511574 -0.03645783 14.84204102 -0.04199219 C17.48088074 -0.04774704 20.11972046 -0.05350473 22.75856018 -0.05926514 C27.58022154 -0.06881785 32.40187393 -0.07472658 37.22354358 -0.07776189 C44.30283072 -0.0822443 51.38192495 -0.09981147 58.46115345 -0.12876248 C64.61156028 -0.15303526 70.76188779 -0.16070853 76.91234016 -0.16243744 C79.52098709 -0.16546101 82.12963326 -0.17347952 84.73824883 -0.18662262 C88.38814767 -0.20370451 92.03757724 -0.20179765 95.6875 -0.1953125 C96.76047836 -0.20452728 97.83345673 -0.21374207 98.93894958 -0.22323608 C109.90260018 -0.16230978 118.19112444 3.59170736 126.35766602 10.90722656 C138.03017656 23.08613669 137.12434586 37.20532165 137.04336548 52.99804688 C137.04913019 55.44173894 137.05707365 57.88542668 137.0670017 60.32910538 C137.08350234 65.63163475 137.08454901 70.93382829 137.0717659 76.23634338 C137.05280865 84.12146078 137.06254525 92.00636425 137.07780744 99.89148033 C137.10410595 113.97637587 137.10186627 128.06115787 137.08741287 142.14606416 C137.07482672 154.47210344 137.07155549 166.79810113 137.07752609 179.12414551 C137.07790802 179.94229643 137.07828994 180.76044735 137.07868344 181.60339072 C137.08024018 184.92467289 137.08183218 188.24595503 137.08348226 191.56723715 C137.09877147 222.71269577 137.08491915 253.85808214 137.05799778 285.00352961 C137.03427037 312.66417563 137.03639354 340.32470655 137.06030273 367.98535156 C137.08708569 399.07445415 137.0976871 430.16349292 137.08224142 461.25260544 C137.08063787 464.56777698 137.07907367 467.88294855 137.07752609 471.19812012 C137.07693301 472.42250712 137.07693301 472.42250712 137.07632795 473.67162922 C137.07064463 485.98882665 137.07728442 498.30597791 137.08992386 510.62316895 C137.1042264 524.6307588 137.10063277 538.63821752 137.07352014 552.64579105 C137.05885247 560.48188381 137.05786006 568.31769249 137.07675101 576.15377779 C137.08930535 582.00782994 137.07566156 587.86163211 137.05187814 593.7156558 C137.0462969 596.0815739 137.04912548 598.44753006 137.06125708 600.81342363 C137.13446942 616.27859151 136.90069589 628.44577689 125.58422852 640.18847656 C116.26731011 648.63559289 108.12844621 650.46630324 95.84863281 650.41992188 C94.70299866 650.42342651 93.5573645 650.42693115 92.37701416 650.43054199 C88.59966932 650.4393253 84.82251269 650.43352084 81.04516602 650.42675781 C78.41111719 650.42810571 75.77706861 650.43004729 73.14302063 650.43255615 C67.62446061 650.43618883 62.10595421 650.4314167 56.58740234 650.421875 C50.22937065 650.41100797 43.87146742 650.41450605 37.51343888 650.42552781 C31.37371173 650.43574084 25.23404099 650.43460393 19.09430885 650.42876434 C16.49290766 650.42743417 13.89150316 650.42905332 11.29010582 650.43372345 C7.6454654 650.4388295 4.00106776 650.43102031 0.35644531 650.41992188 C-0.7093425 650.42397034 -1.77513031 650.4280188 -2.87321472 650.43218994 C-13.04669019 650.37509573 -21.29560928 649.30228576 -29.59155273 643.16113281 C-30.62280273 642.43925781 -31.65405273 641.71738281 -32.71655273 640.97363281 C-38.4893159 635.98949849 -42.88168186 627.73168565 -43.8425293 620.19165039 C-44.70800704 608.3076612 -43.30456554 599.44888633 -35.76342773 589.82910156 C-30.44718226 584.00500337 -24.01328825 580.63504465 -16.59155273 578.16113281 C10.13844727 578.16113281 36.86844727 578.16113281 64.40844727 578.16113281 C64.40844727 411.18113281 64.40844727 244.20113281 64.40844727 72.16113281 C37.67844727 72.16113281 10.94844727 72.16113281 -16.59155273 72.16113281 C-27.9110769 67.63332315 -36.15799104 62.29993428 -41.59155273 51.16113281 C-41.95506836 50.44957031 -42.31858398 49.73800781 -42.69311523 49.00488281 C-45.15459975 41.21374922 -45.15359561 29.52958029 -41.96655273 21.97363281 C-40.84936523 20.00488281 -40.84936523 20.00488281 -39.59155273 18.16113281 C-39.15584961 17.47019531 -38.72014648 16.77925781 -38.27124023 16.06738281 C-32.86003484 8.142776 -25.14854599 2.398141 -15.60118103 0.59698486 C-10.4211328 -0.08364364 -5.21573548 0.00542367 0 0 Z " fill="#FEFEFE" transform="translate(664.591552734375,186.8388671875)"/>
<path d="M0 0 C1.71910835 -0.00788544 1.71910835 -0.00788544 3.47294617 -0.01593018 C7.23405885 -0.02905577 10.99474292 -0.02041814 14.75585938 -0.01025391 C17.38562094 -0.01227677 20.01538195 -0.01518997 22.6451416 -0.01895142 C28.14579855 -0.02439088 33.64633418 -0.01726518 39.14697266 -0.00292969 C45.48296854 0.01339344 51.81867469 0.00810364 58.15466356 -0.0084089 C64.28000215 -0.02372617 70.40521353 -0.02202501 76.53056335 -0.0132637 C79.12359152 -0.0112691 81.71662714 -0.01369485 84.30964661 -0.02070236 C87.93970037 -0.02836063 91.5692056 -0.01665063 95.19921875 0 C96.26029343 -0.00607269 97.3213681 -0.01214539 98.41459656 -0.0184021 C110.33687823 0.08239572 119.19885385 3.34111688 128.09960938 11.38818359 C134.18071972 18.59405216 137.66051091 26.31301174 137.47460938 35.76318359 C137.46373291 36.51341797 137.45285645 37.26365234 137.44165039 38.03662109 C137.12390982 49.08679875 133.25761822 55.96882689 125.62695312 63.92333984 C102.82247609 84.69510583 38.95600413 72.38818359 29.09960938 72.38818359 C29.09960938 239.36818359 29.09960938 406.34818359 29.09960938 578.38818359 C55.49960937 578.38818359 81.89960938 578.38818359 109.09960938 578.38818359 C121.42489426 583.52371896 128.93751662 587.79010455 135.09960938 599.38818359 C138.82074019 608.4544439 138.54036955 619.93253389 134.97460938 629.01318359 C130.68554979 637.78299258 124.35765225 644.62273298 115.06612301 648.16298008 C108.32167045 650.37898468 102.18979188 650.82199801 95.12329102 650.79223633 C93.39196175 650.8025312 93.39196175 650.8025312 91.62565613 650.81303406 C87.83689833 650.83123032 84.04855744 650.82747472 80.25976562 650.82177734 C78.28055757 650.82518713 76.30134932 650.82860592 74.3221435 650.83313042 C68.10802749 650.84712739 61.89404912 650.84565475 55.67993164 650.83422852 C49.29731694 650.82275085 42.91512261 650.8368277 36.53256327 650.86362499 C31.02562373 650.88586898 25.51881531 650.89239995 20.01183408 650.88654858 C16.73460431 650.88319857 13.45770106 650.88720227 10.18049812 650.90279961 C6.52179263 650.91776141 2.86400019 650.90699315 -0.79467773 650.88989258 C-1.86150787 650.89956055 -2.92833801 650.90922852 -4.02749634 650.91918945 C-14.78403352 650.8144937 -23.47707741 647.6509354 -31.66992188 640.66943359 C-41.37757861 630.74076191 -43.05898078 618.76600986 -43.02902508 605.46267891 C-43.03077812 604.47466488 -43.03253115 603.48665086 -43.03433731 602.46869701 C-43.03899842 599.14978183 -43.03653151 595.83091043 -43.03410339 592.51199341 C-43.0359713 590.11173208 -43.03827193 587.71147105 -43.04096872 585.31121051 C-43.04581532 580.08826468 -43.04754065 574.86532735 -43.0465126 569.64237976 C-43.04498758 561.87557958 -43.04914963 554.10878965 -43.05438723 546.34199146 C-43.06405913 531.66365385 -43.0668714 516.98531973 -43.06744429 502.30697931 C-43.06790376 490.97283948 -43.06996175 479.63870101 -43.07314491 468.30456161 C-43.07404245 465.04251349 -43.07493226 461.78046537 -43.07581979 458.51841724 C-43.07604084 457.70747522 -43.07626189 456.89653319 -43.07648963 456.06101717 C-43.08264391 433.25049232 -43.08659018 410.43996794 -43.08614635 387.62944221 C-43.08613078 386.76940662 -43.0861152 385.90937103 -43.08609915 385.02327375 C-43.08601604 380.66420952 -43.085917 376.30514529 -43.08581444 371.94608106 C-43.08579449 371.08034733 -43.08577455 370.2146136 -43.085754 369.32264551 C-43.08571356 367.5719215 -43.08567176 365.82119748 -43.08562861 364.07047347 C-43.08501574 336.82692489 -43.09252454 309.58338876 -43.10620117 282.33984375 C-43.12155851 251.73571701 -43.13016762 221.13159845 -43.12923795 190.52746761 C-43.12916332 187.26479077 -43.12911461 184.00211394 -43.12908363 180.7394371 C-43.12907198 179.93607583 -43.12906032 179.13271456 -43.12904832 178.30500901 C-43.12901753 165.37225782 -43.13540558 152.43951742 -43.1440159 139.50676943 C-43.1524887 126.51193647 -43.15348524 113.51711931 -43.14690658 100.52228512 C-43.14320859 92.80119946 -43.14505074 85.0801618 -43.15484892 77.35908122 C-43.16154507 71.59577898 -43.1578024 65.83252139 -43.14997569 60.06922232 C-43.1484337 57.73617753 -43.15028304 55.40312757 -43.15583577 53.07008888 C-43.16287808 49.90176384 -43.15761599 46.7336871 -43.14927959 43.56537056 C-43.15424777 42.65728557 -43.15921595 41.74920058 -43.16433468 40.81359786 C-43.09571579 28.49780448 -39.64581509 18.33236771 -30.90039062 9.38818359 C-21.4853071 1.75129676 -11.90417639 -0.06812942 0 0 Z " fill="#FEFEFE" transform="translate(265.900390625,186.61181640625)"/>
</svg>
